# xmcd
# 
# Track frame offsets:
#     150
#     21552
#     44204
#     66841
#     88419
#     110943
#     130313
#     155039
#     173253
#     194754
#     209352
#     234298
# 
# Disc length: 3466
# 
# Revision: 2
# Processed by: cddbd v1.5.2PL0 Copyright (c) Steve Scherf et al.
# Submitted via: fre:ac v1.0.17
# 
DISCID=ba0d880c
DTITLE=Sorry Bamba - Dogon Blues
DYEAR=2010
DGENRE=Blues
TTITLE0=Ambèdjèlè (Bienvenue)
TTITLE1=Yagana (Hommage A L'Ancêtre)
TTITLE2=Diyananko (Ce Que J'Aime - Chant D'Issa Bamba)
TTITLE3=Sayouwé (La Fête Du Bolo - Année Nouvelle)
TTITLE4=Tiogo Wo Tiogo (De Toutes Les Façons...)
TTITLE5=Indjèliyama (La Pluie Bienfaitrice)
TTITLE6=Sékou Amadou (Hommage Au Saint Musulman De Hamdallaye)
TTITLE7=Lawanayè (La Mère Des Masques)
TTITLE8=Boyélélé (Hommage A Tous Les Masques)
TTITLE9=Dogon Blues - Manden Po (Salut Mandingue)
TTITLE10=Sahel Vert
TTITLE11=Mines Antipersonnel
EXTD=YEAR: 2010
EXTT0=
EXTT1=
EXTT2=
EXTT3=
EXTT4=
EXTT5=
EXTT6=
EXTT7=
EXTT8=
EXTT9=
EXTT10=
EXTT11=
PLAYORDER=
